<?xml version="1.0" encoding="UTF-8"?>
<svg version="1.1" xmlns="http://www.w3.org/2000/svg" width="512" height="512">
<path d="M0 0 C168.96 0 337.92 0 512 0 C512 168.96 512 337.92 512 512 C343.04 512 174.08 512 0 512 C0 343.04 0 174.08 0 0 Z " fill="#080D17" transform="translate(0,0)"/>
<path d="M0 0 C4.14857873 0.83430827 6.45362203 3.27661185 9.1171875 6.42578125 C10.07053034 8.03684883 10.9733316 9.67842496 11.8359375 11.33984375 C15.31783588 17.87069464 19.13286836 24.1756943 22.9921875 30.48828125 C23.73285971 31.70463468 24.47333451 32.92110834 25.21362305 34.13769531 C29.00114114 40.35593569 32.81219057 46.55929178 36.64453125 52.75 C37.00746277 53.33697159 37.37039429 53.92394318 37.74432373 54.52870178 C39.47130747 57.32157427 41.20174355 60.11216181 42.93896484 62.89868164 C53.53923632 80.00709701 53.53923632 80.00709701 52.1171875 90.42578125 C50.12433414 98.10610373 46.53042519 104.77508467 39.61328125 108.9296875 C34.06062028 111.76663655 29.55764817 113.54233287 23.27563477 113.61865234 C21.47214317 113.64274673 21.47214317 113.64274673 19.63221741 113.66732788 C14.10841118 113.71194064 8.584735 113.75331704 3.06079102 113.77587891 C0.15584345 113.78915053 -2.74839033 113.81687541 -5.65307617 113.85791016 C-9.17742454 113.90768626 -12.701132 113.93205522 -16.22581673 113.93910599 C-18.19980261 113.94894897 -20.17362037 113.98308999 -22.14732361 114.01791382 C-32.62042351 113.99366031 -42.52932225 111.61651411 -50.35546875 104.23046875 C-58.37498363 94.75472482 -60.75867261 85.47257198 -60.08251953 73.35839844 C-59.62590034 68.9395751 -58.0414634 65.25863334 -55.8828125 61.42578125 C-55.54378906 60.79414063 -55.20476562 60.1625 -54.85546875 59.51171875 C-50.70021879 52.79825439 -43.29452333 47.88626319 -35.8828125 45.42578125 C-31.1915028 44.99207003 -26.49956073 44.96968806 -21.79101562 44.9453125 C-19.52064528 44.92589103 -17.25389711 44.86379618 -14.984375 44.80078125 C-2.82367289 44.62491373 -2.82367289 44.62491373 1.59375 48.33203125 C5.16445191 52.7097339 5.57527299 55.26836684 5.53515625 60.8125 C4.84652388 65.11806128 2.44334947 67.74043947 -0.8828125 70.42578125 C-4.19204618 72.44647195 -6.78722462 72.6872685 -10.63671875 72.734375 C-12.28897461 72.77208008 -12.28897461 72.77208008 -13.97460938 72.81054688 C-16.29226086 72.84576161 -18.60997613 72.87699854 -20.92773438 72.90429688 C-22.02794922 72.93072266 -23.12816406 72.95714844 -24.26171875 72.984375 C-25.77100952 73.00455688 -25.77100952 73.00455688 -27.31079102 73.02514648 C-29.8949269 73.23355713 -29.8949269 73.23355713 -31.70678711 74.70727539 C-33.36572217 77.13144893 -33.29592147 79.51935146 -33.37890625 82.390625 C-32.65432883 85.36310403 -31.22961086 86.50347983 -28.8828125 88.42578125 C-26.15772859 89.03745764 -26.15772859 89.03745764 -23.15625 88.95703125 C-21.48369141 88.96476562 -21.48369141 88.96476562 -19.77734375 88.97265625 C-18.03517578 88.94945312 -18.03517578 88.94945312 -16.2578125 88.92578125 C-15.11957031 88.94125 -13.98132813 88.95671875 -12.80859375 88.97265625 C-2.46222384 88.92514135 5.78897379 86.584324 13.42578125 79.42578125 C18.41348265 73.52808352 20.64819225 65.5995472 20.51171875 57.95703125 C19.71421393 52.84036664 16.82899906 48.75088187 14.1171875 44.42578125 C13.70484863 43.76465332 13.29250977 43.10352539 12.86767578 42.42236328 C10.17902993 38.11085454 10.17902993 38.11085454 7.45751953 33.82006836 C5.68997488 31.04468925 4.16219568 28.56080579 3.1171875 25.42578125 C0.74093405 24.24186902 0.74093405 24.24186902 -1.8828125 23.42578125 C-2.8728125 23.09578125 -3.8628125 22.76578125 -4.8828125 22.42578125 C-7.61570543 22.19780563 -10.33323454 22.00909938 -13.0703125 21.86328125 C-13.81990234 21.82009766 -14.56949219 21.77691406 -15.34179688 21.73242188 C-17.18859625 21.6265544 -19.03568084 21.52568365 -20.8828125 21.42578125 C-9.47948687 -0.32987225 -9.47948687 -0.32987225 0 0 Z " fill="#FAFBFB" transform="translate(258.8828125,147.57421875)"/>
<path d="M0 0 C5.13592676 2.42260696 8.18941616 6.17385803 11 11 C13.04628787 17.1388636 13.10571965 24.50016765 10.375 30.4375 C7.87368644 34.7254661 4.45752558 37.77123721 0 40 C-2.171875 40.2734375 -2.171875 40.2734375 -4.75 40.375 C-5.59046875 40.42398438 -6.4309375 40.47296875 -7.296875 40.5234375 C-10 40 -10 40 -16 35 C-16.33 41.6 -16.66 48.2 -17 55 C-20.3 55 -23.6 55 -27 55 C-27 37.18 -27 19.36 -27 1 C-24.03 1 -21.06 1 -18 1 C-18 2.32 -18 3.64 -18 5 C-17.53851563 4.6390625 -17.07703125 4.278125 -16.6015625 3.90625 C-11.14215365 0.0220856 -6.65595074 -1.18576601 0 0 Z " fill="#F4F6F7" transform="translate(380,311)"/>
<path d="M0 0 C3.63 0 7.26 0 11 0 C21.51614011 26.6480619 21.51614011 26.6480619 26.625 40 C27.12 41.28716919 27.12 41.28716919 27.625 42.6003418 C27.92664063 43.392229 28.22828125 44.18411621 28.5390625 45 C28.79896973 45.680625 29.05887695 46.36125 29.32666016 47.0625 C30.00167246 49.00481242 30.50128287 51.00513149 31 53 C27.37 53 23.74 53 20 53 C17 46.5 17 46.5 17 42 C9.41 42 1.82 42 -6 42 C-6.66 44.97 -7.32 47.94 -8 51 C-8.33 51.66 -8.66 52.32 -9 53 C-12.63 53 -16.26 53 -20 53 C-17.48377912 43.90220492 -14.05751125 35.25358706 -10.5625 26.5 C-9.98334671 25.04051423 -9.40456835 23.58087961 -8.82617188 22.12109375 C-5.8995978 14.74122806 -2.95220949 7.36964333 0 0 Z " fill="#F0F2F3" transform="translate(317,297)"/>
<path d="M0 0 C12.21 0 24.42 0 37 0 C37 2.97 37 5.94 37 9 C28.09 9 19.18 9 10 9 C10 13.29 10 17.58 10 22 C17.92 22 25.84 22 34 22 C34 24.97 34 27.94 34 31 C26.08 31 18.16 31 10 31 C10 35.29 10 39.58 10 44 C18.91 44 27.82 44 37 44 C37 46.97 37 49.94 37 53 C24.79 53 12.58 53 0 53 C0 35.51 0 18.02 0 0 Z " fill="#F4F5F6" transform="translate(108,297)"/>
<path d="M0 0 C3.3 0 6.6 0 10 0 C19 19.33333333 19 19.33333333 19 26 C19.66 26 20.32 26 21 26 C21.309375 24.2984375 21.309375 24.2984375 21.625 22.5625 C23.31648767 14.82643138 26.28945991 7.42415226 29 0 C32.63 0 36.26 0 40 0 C38.39816591 4.33478787 36.77426289 8.66089648 35.13964844 12.98339844 C34.29166302 15.22798024 33.44638938 17.4735869 32.60253906 19.71972656 C31.3029596 23.17642807 29.99239057 26.62883373 28.6763916 30.07931519 C28.14411116 31.47956139 27.61503149 32.8810287 27.0892334 34.28372192 C26.33634645 36.29020304 25.57180336 38.29189161 24.8046875 40.29296875 C24.36108887 41.4636792 23.91749023 42.63438965 23.46044922 43.84057617 C21.67286813 47.707692 19.64794626 50.86278089 16.109375 53.3046875 C13.40388355 54.19649764 11.09258715 54.19268065 8.25 54.125 C6.77273437 54.09792969 6.77273437 54.09792969 5.265625 54.0703125 C4.51796875 54.04710937 3.7703125 54.02390625 3 54 C2.90234375 47.84765625 2.90234375 47.84765625 3 46 C4.58272601 44.41727399 6.38034003 44.65264253 8.5625 44.4375 C9.38878906 44.35371094 10.21507812 44.26992188 11.06640625 44.18359375 C11.70449219 44.12300781 12.34257812 44.06242187 13 44 C14.37045569 38.00260857 13.50912464 34.53119128 11.03515625 28.984375 C10.72299667 28.24672913 10.4108371 27.50908325 10.08921814 26.74908447 C9.09591871 24.40901008 8.08048105 22.07942977 7.0625 19.75 C6.05215434 17.40478652 5.04660962 15.05766274 4.04649353 12.70806885 C3.42455795 11.2505014 2.79600683 9.79573509 2.16017151 8.34417725 C0.88836654 5.39303858 0 3.24987404 0 0 Z " fill="#F4F5F7" transform="translate(240,312)"/>
<path d="M0 0 C3.43134758 1.63397504 5.323697 3.02070175 7.4453125 6.203125 C5.7953125 7.853125 4.1453125 9.503125 2.4453125 11.203125 C-1.5546875 9.203125 -1.5546875 9.203125 -3.4296875 8.078125 C-6.24158552 6.92028464 -8.54266177 7.00668854 -11.5546875 7.203125 C-12.5446875 7.698125 -12.5446875 7.698125 -13.5546875 8.203125 C-13.2246875 9.853125 -12.8946875 11.503125 -12.5546875 13.203125 C-11.52988281 13.44546875 -10.50507813 13.6878125 -9.44921875 13.9375 C-8.0883735 14.27536503 -6.72770553 14.61394469 -5.3671875 14.953125 C-4.35688477 15.18902344 -4.35688477 15.18902344 -3.32617188 15.4296875 C1.12824611 16.55958865 4.12352292 18.02521708 7.4453125 21.203125 C9.04658324 24.40566647 8.85232857 26.65627064 8.4453125 30.203125 C5.67349294 34.83522615 2.62488528 37.58355357 -2.5546875 39.203125 C-10.10279664 40.2173688 -15.95931554 39.16628371 -22.69140625 35.6875 C-24.5546875 34.203125 -24.5546875 34.203125 -25.4140625 32.171875 C-25.5546875 30.203125 -25.5546875 30.203125 -24.1171875 27.953125 C-23.6015625 27.375625 -23.0859375 26.798125 -22.5546875 26.203125 C-20.0671282 26.64733202 -18.6950437 27.08535832 -16.734375 28.73046875 C-14.07803245 30.52516613 -12.60065051 30.54778061 -9.4296875 30.453125 C-8.12644531 30.42992187 -8.12644531 30.42992187 -6.796875 30.40625 C-4.51914378 30.3373081 -4.51914378 30.3373081 -2.5546875 29.203125 C-2.8846875 27.883125 -3.2146875 26.563125 -3.5546875 25.203125 C-5.07449219 24.89181641 -5.07449219 24.89181641 -6.625 24.57421875 C-19.93807965 21.60691548 -19.93807965 21.60691548 -23.73046875 15.99609375 C-25.06166541 13.10026784 -25.21861138 11.32356725 -24.5546875 8.203125 C-19.39890145 -1.53558199 -10.16960845 -3.17217144 0 0 Z " fill="#F0F3F4" transform="translate(199.5546875,311.796875)"/>
<path d="M0 0 C2.97 0 5.94 0 9 0 C9.33 3.63 9.66 7.26 10 11 C12.64 11 15.28 11 18 11 C18 13.64 18 16.28 18 19 C15.36 19 12.72 19 10 19 C10.13820269 22.3128652 10.28683778 25.62517989 10.4375 28.9375 C10.47681641 29.88302734 10.51613281 30.82855469 10.55664062 31.80273438 C10.59853516 32.70185547 10.64042969 33.60097656 10.68359375 34.52734375 C10.72025146 35.35999756 10.75690918 36.19265137 10.79467773 37.05053711 C10.79367103 39.00338858 10.79367103 39.00338858 12 40 C14.32817964 40.36760731 16.6618385 40.70241581 19 41 C19 43.64 19 46.28 19 49 C16.93867858 49.10864945 14.87568679 49.18588321 12.8125 49.25 C11.66394531 49.29640625 10.51539063 49.3428125 9.33203125 49.390625 C5.34289706 48.92296566 3.78908693 47.83497684 1 45 C-0.01973129 41.94080612 -0.11533602 39.87581975 -0.09765625 36.67578125 C-0.09282227 35.13374023 -0.09282227 35.13374023 -0.08789062 33.56054688 C-0.07951172 32.48869141 -0.07113281 31.41683594 -0.0625 30.3125 C-0.05798828 29.22904297 -0.05347656 28.14558594 -0.04882812 27.02929688 C-0.03703743 24.35280915 -0.02058063 21.67643223 0 19 C-1.98 19 -3.96 19 -6 19 C-6 16.36 -6 13.72 -6 11 C-4.02 11 -2.04 11 0 11 C0 7.37 0 3.74 0 0 Z " fill="#F5F7F8" transform="translate(218,301)"/>
<path d="M0 0 C3.3 0 6.6 0 10 0 C10.33 15.18 10.66 30.36 11 46 C12.65 46.33 14.3 46.66 16 47 C16 49.64 16 52.28 16 55 C14.27305325 55.13609913 12.54295278 55.23249228 10.8125 55.3125 C9.84957031 55.37050781 8.88664063 55.42851562 7.89453125 55.48828125 C3.68728595 54.77855701 2.53486486 53.43460493 0 50 C-0.69613698 46.18720591 -0.5816726 42.43879825 -0.48828125 38.57421875 C-0.48120651 37.47149124 -0.47413177 36.36876373 -0.46684265 35.23262024 C-0.43889489 31.71688483 -0.37615165 28.20275257 -0.3125 24.6875 C-0.28741781 22.30145532 -0.26460451 19.91538563 -0.24414062 17.52929688 C-0.18906625 11.68558194 -0.1027873 5.8430626 0 0 Z " fill="#F0F2F3" transform="translate(154,295)"/>
<path d="M0 0 C3.3 0 6.6 0 10 0 C10 12.54 10 25.08 10 38 C6.7 38 3.4 38 0 38 C0 25.46 0 12.92 0 0 Z " fill="#F1F3F5" transform="translate(400,312)"/>
<path d="M0 0 C3.28079607 0.84836747 4.90003114 2.9118294 6.93359375 5.5 C8.46956829 8.57194908 8.16009755 11.10244293 7.93359375 14.5 C6.35635073 18.48066095 5.52358464 20.10667274 1.93359375 22.5 C-2.20570678 22.80104004 -5.63740012 23.04000454 -9.06640625 20.5 C-11.9618295 15.83165454 -11.81302475 10.81278009 -11.06640625 5.5 C-8.16441036 0.87494404 -5.2686387 -0.31870782 0 0 Z " fill="#12141C" transform="translate(374.06640625,319.5)"/>
<path d="M0 0 C3.03209857 3.46779602 4.31860236 7.30738933 5.6875 11.625 C5.91244141 12.305625 6.13738281 12.98625 6.36914062 13.6875 C8 18.70400361 8 18.70400361 8 21 C3.05 21 -1.9 21 -7 21 C-5.13825211 13.73918325 -2.94513033 6.89190398 0 0 Z " fill="#12151B" transform="translate(322,309)"/>
<path d="M0 0 C2.12691797 0.44934887 4.25150039 0.90976473 6.375 1.375 C7.55835938 1.63023437 8.74171875 1.88546875 9.9609375 2.1484375 C13 3 13 3 15 5 C14.75 7.0625 14.75 7.0625 14 9 C10.29012673 10.85493664 6.03860349 10.59596347 2 10 C-0.29327525 8.55214852 -1.34437719 7.20749707 -3 5 C-2.34 5 -1.68 5 -1 5 C-0.67 3.35 -0.34 1.7 0 0 Z " fill="#14161D" transform="translate(183,333)"/>
<path d="M0 0 C3.5 0.25 3.5 0.25 5.5 2.25 C5.8125 5.75 5.8125 5.75 5.5 9.25 C2.5 11.25 2.5 11.25 -1.125 11 C-2.23875 10.7525 -3.3525 10.505 -4.5 10.25 C-5.88125018 7.48749964 -5.69079306 5.30268901 -5.5 2.25 C-3.5 0.25 -3.5 0.25 0 0 Z " fill="#F2F4F6" transform="translate(404.5,294.75)"/>
<path d="M0 0 C7.26 0 14.52 0 22 0 C22 0.33 22 0.66 22 1 C18.7 1 15.4 1 12 1 C12.66 3.31 13.32 5.62 14 8 C13.38125 7.79375 12.7625 7.5875 12.125 7.375 C11.42375 7.25125 10.7225 7.1275 10 7 C9.34 7.66 8.68 8.32 8 9 C8 6.36 8 3.72 8 1 C5.36 1 2.72 1 0 1 C0 0.67 0 0.34 0 0 Z " fill="#3C4044" transform="translate(228,311)"/>
<path d="M0 0 C1.65 0 3.3 0 5 0 C4.01 1.485 4.01 1.485 3 3 C2.33386665 5.27538323 2.33386665 5.27538323 1.875 7.6875 C1.70742187 8.49574219 1.53984375 9.30398438 1.3671875 10.13671875 C1.24601562 10.75160156 1.12484375 11.36648438 1 12 C0.67 12 0.34 12 0 12 C0 8.04 0 4.08 0 0 Z " fill="#1C1E22" transform="translate(118,328)"/>
<path d="M0 0 C2.50298434 2.93828597 3.46930939 5.17902761 4 9 C2.35 8.01 0.7 7.02 -1 6 C-0.67 4.02 -0.34 2.04 0 0 Z " fill="#222427" transform="translate(322,309)"/>
<path d="M0 0 C1.98 0.99 1.98 0.99 4 2 C4 2.99 4 3.98 4 5 C3.34 5 2.68 5 2 5 C1.67 5.99 1.34 6.98 1 8 C0.67 5.36 0.34 2.72 0 0 Z " fill="#16181D" transform="translate(364,347)"/>
</svg>
